<?xml version="1.0" standalone="no"?>
<!DOCTYPE svg PUBLIC "-//W3C//DTD SVG 20010904//EN"
 "http://www.w3.org/TR/2001/REC-SVG-20010904/DTD/svg10.dtd">
<svg version="1.0" xmlns="http://www.w3.org/2000/svg"
 width="503.000000pt" height="503.000000pt" viewBox="0 0 503.000000 503.000000"
 preserveAspectRatio="xMidYMid meet">

<g transform="translate(0.000000,503.000000) scale(0.100000,-0.100000)"
fill="#0A6847" stroke="none">
<path d="M2474 4896 c-3 -7 -3 -64 -2 -127 l3 -114 27 -3 27 -3 3 102 c2 71 7
104 16 107 9 3 12 -20 12 -90 0 -100 7 -122 36 -116 17 3 19 15 22 117 2 70
-1 118 -8 126 -14 17 -130 18 -136 1z"/>
<path d="M2247 4888 c-16 -6 -30 -20 -34 -36 -8 -34 11 -178 27 -197 7 -9 29
-15 51 -15 48 0 79 28 79 70 0 27 -3 30 -29 30 -24 0 -30 -5 -33 -25 -5 -40
-23 -34 -26 7 -3 37 -2 38 37 44 40 6 41 8 41 46 0 28 -7 46 -25 63 -26 27
-44 29 -88 13z m51 -71 c2 -19 -1 -27 -12 -27 -11 0 -16 10 -16 31 0 38 24 35
28 -4z"/>
<path d="M2747 4878 c-4 -13 -9 -67 -13 -120 -7 -92 -6 -96 15 -108 13 -6 29
-9 36 -6 8 3 28 1 44 -4 17 -5 33 -5 36 0 8 13 34 234 29 242 -3 5 -16 8 -29
8 -21 0 -25 -6 -30 -47 -16 -126 -21 -147 -34 -151 -11 -4 -12 10 -6 74 12
134 13 129 -16 132 -21 2 -28 -2 -32 -20z"/>
<path d="M2077 4863 c-5 -7 -26 -13 -48 -13 -21 0 -39 -5 -39 -10 0 -8 25
-128 45 -217 4 -16 13 -23 30 -23 13 0 26 3 28 8 3 4 -4 49 -15 100 -19 88
-19 94 -3 106 10 7 16 22 13 37 -2 16 -6 20 -11 12z"/>
<path d="M3023 4826 c-23 -29 -48 -153 -39 -189 4 -19 16 -29 42 -36 47 -13
78 0 94 38 15 36 14 37 -22 46 -22 6 -27 3 -30 -16 -5 -34 -28 -36 -28 -2 0
48 13 58 54 46 32 -10 38 -9 46 7 6 10 10 37 10 59 0 30 -6 44 -22 55 -34 24
-83 20 -105 -8z m71 -24 c9 -15 -6 -52 -20 -52 -15 0 -18 18 -8 44 7 17 20 21
28 8z"/>
<path d="M1805 4798 c-11 -7 -29 -14 -40 -15 -11 -2 -23 -7 -28 -12 -7 -7 63
-255 79 -282 2 -4 15 -4 30 -1 22 4 25 9 20 33 -5 24 -2 28 24 34 50 11 50 72
-2 195 -26 61 -44 71 -83 48z m45 -123 c22 -69 22 -102 1 -79 -8 9 -51 131
-51 146 0 4 6 8 13 8 8 0 23 -31 37 -75z"/>
<path d="M3243 4675 c-32 -99 -36 -117 -23 -125 30 -19 43 -4 74 85 26 74 34
89 50 87 20 -4 36 13 36 37 0 8 -6 11 -16 7 -8 -3 -22 1 -30 9 -9 8 -24 15
-34 15 -15 0 -26 -23 -57 -115z"/>
<path d="M1542 4694 c-55 -23 -59 -51 -22 -136 50 -110 87 -132 145 -86 24 18
27 26 22 60 -7 51 -11 54 -42 34 -20 -13 -23 -20 -16 -35 10 -17 6 -31 -9 -31
-7 0 -30 45 -30 60 0 5 15 17 33 26 17 9 33 18 35 19 1 1 -4 18 -12 37 -24 57
-56 73 -104 52z m48 -75 c0 -11 -6 -19 -14 -19 -15 0 -29 37 -20 52 9 13 34
-12 34 -33z"/>
<path d="M3483 4692 c-27 -17 -32 -57 -12 -101 24 -54 25 -91 3 -91 -12 0 -15
6 -10 25 5 20 2 27 -19 37 -30 13 -33 11 -41 -30 -5 -25 -1 -36 19 -56 43 -43
104 -32 126 23 11 25 10 36 -8 76 -23 52 -26 75 -11 75 6 0 10 -7 10 -15 0
-14 29 -35 49 -35 6 0 11 13 11 29 0 50 -75 90 -117 63z"/>
<path d="M3681 4515 c-60 -103 -71 -128 -61 -140 23 -28 38 -15 90 70 49 81
70 102 70 71 0 -8 -20 -49 -45 -90 -25 -42 -45 -81 -45 -86 0 -10 39 -34 45
-28 9 9 98 165 105 184 11 27 -13 64 -40 64 -17 0 -18 3 -8 26 11 22 10 28 -7
40 -10 8 -22 14 -25 14 -3 0 -39 -56 -79 -125z"/>
<path d="M1354 4596 c-3 -8 -18 -16 -35 -20 -16 -3 -29 -11 -29 -18 0 -14 107
-205 119 -212 4 -3 17 1 27 9 18 14 17 17 -23 94 -44 82 -51 107 -32 113 7 2
9 13 5 26 -8 25 -24 29 -32 8z"/>
<path d="M2320 4569 c-306 -34 -627 -153 -885 -326 -463 -312 -766 -785 -861
-1348 -24 -139 -24 -471 0 -610 14 -83 49 -233 72 -307 5 -17 -8 -18 -171 -18
-160 0 -177 -2 -171 -16 4 -9 47 -83 96 -165 50 -81 90 -154 90 -160 0 -7 -31
-62 -68 -123 -109 -176 -113 -183 -106 -200 5 -14 44 -16 364 -16 l358 0 94
-93 c419 -415 980 -624 1556 -580 267 21 489 81 727 197 213 105 392 233 549
395 l78 81 328 0 c261 0 330 3 339 13 15 19 -1176 27 -2988 21 -1127 -3 -1362
-2 -1358 9 3 7 44 77 91 156 l86 142 -84 137 c-47 75 -86 143 -88 151 -3 12
302 15 2174 15 1463 1 2178 -2 2178 -9 0 -8 -95 -169 -160 -273 -13 -19 -13
-25 -1 -45 8 -12 49 -79 91 -149 43 -70 80 -124 84 -121 15 16 1 51 -70 167
-67 110 -74 127 -64 147 7 12 52 87 101 166 49 80 89 147 89 149 0 2 -79 4
-175 4 -96 0 -175 3 -175 8 0 4 13 60 30 124 50 198 63 325 57 558 -4 170 -10
227 -31 330 -68 322 -213 626 -415 873 -92 113 -267 274 -392 362 -63 44 -123
85 -134 91 -11 6 -40 22 -65 36 -205 112 -490 201 -732 227 -111 13 -328 12
-438 0z m405 -19 c341 -37 628 -140 910 -325 399 -263 698 -686 814 -1150 85
-336 79 -719 -15 -1027 l-27 -88 -1867 0 -1868 0 -5 23 c-2 12 -16 67 -30 122
-127 492 -51 1041 205 1475 115 195 290 399 462 538 394 320 935 485 1421 432z
m-1504 -3296 c43 -48 198 -173 287 -233 181 -121 449 -234 657 -275 573 -114
1150 35 1595 411 52 44 104 90 114 102 15 16 31 21 73 21 29 0 53 -3 53 -8 0
-10 -140 -146 -210 -204 -149 -123 -397 -265 -575 -328 -116 -41 -296 -85
-410 -102 -144 -21 -436 -16 -580 10 -317 57 -574 163 -823 340 -93 66 -238
193 -292 255 l-32 37 59 0 c52 0 63 -4 84 -26z"/>
<path d="M2465 4391 c-84 -38 -135 -110 -135 -190 0 -94 77 -190 165 -209 81
-17 159 9 210 70 37 43 47 73 47 139 0 70 -27 126 -79 162 -75 51 -138 60
-208 28z m162 -48 c102 -66 112 -207 20 -277 -113 -87 -269 -8 -269 136 0 63
35 117 94 147 58 29 105 27 155 -6z"/>
<path d="M2034 4311 c-66 -30 -89 -72 -89 -159 0 -73 0 -74 41 -112 51 -48
108 -65 164 -50 119 32 169 184 89 274 -57 65 -129 82 -205 47z m152 -56 c68
-52 65 -155 -5 -202 -91 -62 -212 13 -198 121 13 94 127 139 203 81z"/>
<path d="M2915 4316 c-116 -52 -141 -209 -46 -289 68 -57 158 -56 226 4 43 38
57 80 50 149 -5 44 -12 62 -38 89 -56 58 -127 76 -192 47z m139 -57 c80 -63
70 -172 -21 -217 -75 -37 -163 9 -179 93 -8 44 9 88 48 120 39 33 113 35 152
4z"/>
<path d="M1903 3931 c-66 -48 -97 -95 -97 -149 -1 -61 25 -66 36 -7 10 51 57
109 110 136 21 11 38 25 35 32 -7 23 -43 18 -84 -12z"/>
<path d="M2230 3945 c0 -20 39 -40 52 -27 6 6 8 18 5 26 -8 20 -57 21 -57 1z"/>
<path d="M2332 3930 c-23 -16 -54 -48 -68 -70 -23 -34 -27 -53 -31 -133 -4
-75 -1 -98 14 -127 33 -63 119 -64 156 -1 19 33 23 154 7 210 -13 47 -39 74
-56 60 -11 -9 -11 -16 2 -40 21 -42 29 -148 15 -192 -11 -31 -17 -37 -41 -37
-42 0 -60 32 -59 105 1 98 28 147 109 201 22 15 40 33 40 40 0 24 -45 15 -88
-16z"/>
<path d="M2670 3941 c0 -22 37 -38 51 -24 16 16 -2 43 -27 43 -17 0 -24 -6
-24 -19z"/>
<path d="M2773 3931 c-23 -16 -54 -46 -69 -67 -27 -35 -29 -45 -32 -145 l-4
-108 31 -32 c28 -27 37 -31 68 -26 20 4 46 16 59 28 22 21 24 30 24 121 0 113
-16 168 -49 168 -24 0 -26 -15 -6 -50 18 -32 20 -191 3 -208 -19 -19 -66 -15
-78 7 -18 34 -12 157 10 200 18 37 72 91 90 91 14 0 41 31 35 41 -11 17 -42 9
-82 -20z"/>
<path d="M3107 3953 c-13 -12 -7 -23 23 -38 60 -31 98 -74 111 -125 13 -50 34
-65 46 -34 8 22 -13 86 -39 119 -44 57 -121 99 -141 78z"/>
<path d="M1947 3774 c-4 -4 -7 -26 -7 -49 0 -31 4 -42 15 -42 17 0 28 33 23
68 -3 23 -19 35 -31 23z"/>
<path d="M3106 3765 c-20 -52 6 -123 33 -91 18 21 10 100 -10 104 -9 2 -19 -4
-23 -13z"/>
<path d="M1605 3748 c-67 -36 -62 -74 44 -286 49 -98 96 -183 104 -190 14 -12
206 -64 286 -77 24 -4 52 -16 63 -27 19 -19 19 -20 1 -40 -17 -19 -16 -23 55
-161 40 -78 72 -148 72 -156 0 -11 -30 -13 -180 -7 l-180 8 0 -31 0 -31 640 0
640 0 0 30 0 30 -145 0 c-91 0 -145 4 -145 10 0 6 29 69 65 141 62 125 77 169
55 169 -19 0 -10 29 13 44 12 8 85 28 161 45 76 17 150 37 164 44 20 9 49 59
120 202 86 174 93 193 86 225 -7 25 -19 40 -44 54 -53 28 -84 10 -137 -84 -45
-79 -53 -110 -28 -110 8 0 32 33 54 79 22 43 48 81 57 85 21 8 64 -19 64 -39
0 -9 -40 -96 -90 -195 -87 -174 -91 -179 -127 -189 -21 -6 -96 -25 -168 -43
-108 -26 -135 -36 -157 -60 l-27 -29 -84 40 c-47 22 -88 44 -91 49 -8 13 40
121 66 149 13 14 42 26 77 33 31 6 101 22 156 35 188 44 215 43 215 -10 0 -32
-14 -40 -115 -65 -88 -22 -115 -34 -115 -51 0 -15 40 -10 135 16 66 18 96 31
113 50 38 45 26 103 -27 125 -26 10 -56 6 -232 -31 -145 -31 -209 -49 -226
-64 -13 -11 -39 -49 -57 -85 -26 -50 -39 -66 -57 -68 -21 -2 -40 -36 -138
-238 -124 -255 -115 -244 -206 -241 -49 2 -50 2 -79 57 -16 30 -49 97 -72 148
l-43 92 129 65 c71 36 134 65 139 65 5 0 14 -15 21 -34 6 -18 19 -41 30 -51
34 -31 35 7 1 74 -25 48 -36 61 -55 61 -19 0 -29 14 -59 75 -20 41 -47 81 -61
90 -23 16 -375 95 -420 95 -13 0 -35 -9 -50 -21 -21 -16 -26 -29 -26 -63 0
-59 21 -74 145 -107 83 -22 106 -25 115 -14 16 19 -4 30 -100 55 -108 29 -120
35 -120 64 0 50 16 50 222 6 106 -23 200 -45 208 -50 13 -7 52 -74 88 -152 2
-4 -39 -27 -90 -52 l-93 -45 -21 26 c-15 20 -27 25 -47 21 -16 -3 -28 0 -31 8
-5 12 -38 23 -199 65 l-89 23 -91 183 c-99 197 -103 218 -41 218 25 0 33 -9
72 -82 30 -58 47 -80 58 -76 20 8 19 14 -26 102 -52 104 -90 130 -145 99z
m1215 -583 l130 -65 -72 -145 -73 -145 -167 0 c-157 0 -168 1 -159 18 5 9 51
104 102 210 51 105 96 192 101 192 5 0 67 -29 138 -65z"/>
<path d="M1540 3203 c0 -21 3 -24 9 -14 5 8 7 20 4 28 -8 21 -13 15 -13 -14z"/>
<path d="M3530 3211 c0 -11 5 -23 10 -26 6 -4 10 5 10 19 0 14 -4 26 -10 26
-5 0 -10 -9 -10 -19z"/>
<path d="M1410 3155 c7 -8 17 -15 22 -15 6 0 5 7 -2 15 -7 8 -17 15 -22 15 -6
0 -5 -7 2 -15z"/>
<path d="M1660 3155 c-7 -8 -8 -15 -2 -15 5 0 15 7 22 15 7 8 8 15 2 15 -5 0
-15 -7 -22 -15z"/>
<path d="M3403 3153 c9 -9 19 -14 23 -11 10 10 -6 28 -24 28 -15 0 -15 -1 1
-17z"/>
<path d="M3656 3154 c-5 -14 -4 -15 9 -4 17 14 19 20 6 20 -5 0 -12 -7 -15
-16z"/>
<path d="M1510 3131 c-29 -8 -70 -64 -70 -97 0 -39 32 -96 49 -88 21 10 48 10
93 1 33 -7 39 -5 53 17 21 32 22 97 1 128 -27 42 -70 55 -126 39z"/>
<path d="M3471 3112 c-26 -21 -34 -37 -38 -73 -4 -38 -1 -50 18 -73 21 -24 28
-26 50 -17 16 6 41 6 65 1 46 -11 52 -7 70 37 44 105 -78 198 -165 125z"/>
<path d="M1350 3031 c0 -6 9 -9 20 -8 11 1 20 5 20 9 0 4 -9 8 -20 8 -11 0
-20 -4 -20 -9z"/>
<path d="M1705 3030 c-3 -5 3 -10 14 -10 12 0 21 5 21 10 0 6 -6 10 -14 10 -8
0 -18 -4 -21 -10z"/>
<path d="M3340 3030 c0 -5 7 -10 15 -10 8 0 15 5 15 10 0 6 -7 10 -15 10 -8 0
-15 -4 -15 -10z"/>
<path d="M3708 3023 c7 -3 16 -2 19 1 4 3 -2 6 -13 5 -11 0 -14 -3 -6 -6z"/>
<path d="M1058 2953 c-47 -52 -46 -126 3 -167 39 -33 71 -33 109 2 43 38 50
94 18 142 -20 30 -30 35 -69 38 -33 2 -49 -2 -61 -15z"/>
<path d="M3910 2948 c-26 -28 -34 -59 -27 -105 9 -51 38 -78 87 -78 49 0 78
27 87 78 7 46 -1 77 -27 105 -29 30 -91 30 -120 0z"/>
<path d="M1520 2907 c-20 -10 -26 -21 -28 -54 l-3 -41 53 -4 c29 -2 55 -3 57
-2 2 2 3 22 3 44 -1 66 -28 84 -82 57z"/>
<path d="M3495 2904 c-11 -11 -15 -29 -13 -56 l3 -41 52 -1 c56 -1 63 5 63 52
0 38 -10 48 -52 56 -27 5 -40 2 -53 -10z"/>
<path d="M1504 2732 c-67 -49 -123 -65 -211 -61 -63 3 -84 9 -107 27 -43 33
-106 30 -148 -7 l-33 -29 -3 -140 c-3 -137 -3 -139 22 -169 25 -30 26 -35 26
-175 0 -131 2 -146 20 -166 26 -28 64 -28 90 0 18 20 20 35 20 167 0 142 1
147 25 170 23 22 25 29 25 126 l0 103 93 5 c110 6 146 16 212 59 53 35 69 74
44 104 -17 20 -31 18 -75 -14z"/>
<path d="M3506 2744 c-23 -23 -19 -50 12 -79 58 -56 147 -85 260 -85 l72 0 0
-85 c0 -88 14 -139 43 -164 14 -11 17 -36 17 -157 0 -131 2 -146 20 -164 24
-24 48 -25 78 -4 21 14 22 21 22 166 0 148 0 150 25 170 25 19 25 22 25 158 0
87 -5 149 -12 165 -25 56 -115 73 -171 33 -28 -20 -44 -23 -129 -23 l-96 0
-62 43 c-68 46 -81 50 -104 26z"/>
<path d="M1114 4506 c-16 -13 -17 -18 -6 -35 6 -12 12 -30 12 -41 0 -11 7 -20
14 -20 8 0 39 -34 68 -75 54 -76 82 -92 107 -61 14 16 4 46 -15 46 -13 0 -95
112 -93 127 4 21 -2 33 -16 33 -8 0 -20 9 -27 20 -15 24 -18 24 -44 6z"/>
<path d="M3987 4486 c-8 -20 33 -50 47 -36 7 7 7 16 0 28 -15 23 -40 27 -47 8z"/>
<path d="M3947 4438 c-2 -7 -32 -50 -66 -96 -33 -45 -61 -86 -61 -90 0 -4 10
-13 22 -21 20 -12 24 -11 37 9 8 12 42 58 74 102 56 75 58 80 41 93 -24 18
-40 19 -47 3z"/>
<path d="M976 4348 c-9 -5 -16 -16 -16 -23 0 -8 -6 -15 -13 -15 -8 0 -22 -8
-31 -19 -16 -18 -13 -23 59 -107 76 -89 99 -103 118 -73 8 13 -2 31 -51 88
-34 39 -62 76 -62 81 0 23 31 7 62 -32 67 -87 86 -104 105 -92 9 6 18 15 20
20 5 15 -132 170 -155 176 -11 3 -27 1 -36 -4z"/>
<path d="M4006 4229 l-98 -112 21 -20 c20 -20 21 -20 41 -2 20 18 21 18 43 -3
20 -18 25 -19 53 -8 38 17 134 130 134 159 0 18 -73 97 -90 97 -3 0 -50 -50
-104 -111z m106 -16 c-44 -56 -79 -86 -86 -75 -9 15 95 135 107 123 6 -6 0
-22 -21 -48z"/>
<path d="M731 4169 l-33 -40 34 -31 c18 -17 66 -63 105 -102 l73 -70 40 39
c45 44 47 50 24 72 -14 14 -17 13 -38 -6 -23 -21 -23 -21 -47 -2 -22 17 -22
21 -9 45 12 23 12 29 -3 43 -15 16 -18 15 -37 -2 -20 -18 -21 -18 -42 3 -21
21 -21 22 -3 41 14 17 15 23 5 36 -20 24 -34 18 -69 -26z"/>
<path d="M4630 3733 c-23 -9 -153 -85 -172 -101 -39 -33 -3 -122 49 -122 33 0
83 30 83 51 0 28 -22 39 -44 23 -24 -17 -46 -18 -46 -1 0 12 140 97 160 97 18
0 10 -19 -15 -36 -29 -19 -29 -22 -10 -48 13 -18 15 -18 48 3 54 33 56 89 5
125 -23 17 -33 18 -58 9z"/>
<path d="M302 3555 c-11 -25 -10 -26 98 -76 61 -29 110 -56 110 -60 0 -21 -27
-15 -125 31 -60 28 -109 49 -111 48 -1 -2 -5 -14 -8 -28 -6 -23 -1 -28 66 -58
141 -65 162 -72 189 -58 34 16 52 57 40 89 -8 20 -38 39 -126 81 -64 31 -117
56 -119 56 -2 0 -8 -11 -14 -25z"/>
<path d="M4695 3473 c-55 -24 -114 -51 -132 -59 -24 -11 -30 -18 -26 -35 9
-33 25 -32 99 2 38 17 97 44 131 60 61 27 63 29 51 54 -6 14 -14 25 -17 24 -3
0 -51 -21 -106 -46z"/>
<path d="M4716 3296 c-104 -37 -128 -61 -102 -101 9 -13 16 -33 16 -44 0 -11
5 -23 11 -27 6 -3 62 11 125 32 111 37 115 39 109 64 -4 14 -8 27 -10 28 -2 2
-46 -11 -99 -29 -89 -31 -116 -34 -102 -10 3 5 43 22 89 36 95 32 101 36 92
64 -8 27 -22 26 -129 -13z"/>
<path d="M196 3288 c-17 -24 -21 -65 -8 -84 11 -16 48 -34 72 -34 11 0 39 9
61 21 44 22 90 22 97 1 3 -10 -5 -13 -28 -10 -26 2 -34 -1 -41 -20 -7 -19 -4
-24 17 -32 47 -18 73 -12 94 23 25 41 25 50 -2 82 -34 38 -87 43 -148 15 -47
-22 -88 -22 -75 1 4 6 13 8 20 5 13 -5 25 14 25 40 0 24 -66 18 -84 -8z"/>
<path d="M4915 3073 c-195 -45 -240 -56 -243 -58 -7 -6 29 -120 40 -127 18
-11 33 -10 120 11 96 23 111 34 106 79 -3 28 0 36 14 40 14 3 18 12 16 31 -3
26 -17 33 -53 24z m-25 -86 c0 -11 -119 -48 -152 -47 -19 0 -6 30 15 35 121
28 137 30 137 12z"/>
<path d="M127 3042 c-10 -10 -17 -35 -17 -55 0 -45 19 -58 117 -82 134 -32
173 -22 173 44 0 20 5 42 12 49 14 14 11 14 -87 36 -75 16 -85 13 -85 -31 0
-22 13 -28 49 -23 27 3 61 -11 61 -25 0 -19 -9 -19 -104 5 -43 11 -81 20 -83
20 -3 0 -3 6 0 13 2 6 15 12 28 12 19 0 25 6 27 28 3 25 1 27 -36 27 -25 0
-45 -7 -55 -18z"/>
<path d="M978 1862 c-14 -2 -29 -10 -32 -18 -6 -17 5 -19 21 -3 7 7 19 9 28 5
15 -5 16 -20 13 -101 l-3 -95 31 0 31 0 -5 74 c-7 115 7 148 49 110 16 -15 17
-14 12 5 -3 12 -8 22 -12 22 -17 4 -109 4 -133 1z"/>
<path d="M1289 1862 c-24 -3 -25 -5 -21 -60 5 -75 -8 -127 -33 -127 -24 0 -32
32 -30 118 l1 67 -30 0 -31 0 3 -82 c4 -103 15 -118 86 -118 76 0 80 6 86 111
3 50 3 92 0 93 -3 1 -17 0 -31 -2z"/>
<path d="M1569 1868 c0 -2 -1 -51 -2 -111 -2 -88 1 -107 12 -105 11 2 14 20
12 81 -1 42 0 77 2 77 2 0 26 -34 53 -75 27 -41 55 -75 62 -75 9 0 12 26 12
95 0 52 1 98 3 102 1 4 -5 9 -13 11 -14 2 -15 -8 -12 -63 4 -67 -4 -82 -24
-42 -53 102 -56 107 -80 107 -13 0 -24 -1 -25 -2z"/>
<path d="M1755 1765 l0 -105 30 0 30 0 0 105 0 105 -30 0 -30 0 0 -105z"/>
<path d="M1850 1865 c-1 -3 -1 -51 -1 -107 -1 -80 2 -104 13 -106 11 -2 13 11
10 61 -7 107 -2 109 57 19 29 -45 57 -82 62 -82 5 0 9 39 9 88 0 48 3 98 7
111 5 19 2 22 -12 19 -16 -3 -18 -12 -17 -68 l3 -65 -21 25 c-11 14 -29 44
-41 68 -16 32 -26 42 -45 42 -13 0 -24 -2 -24 -5z"/>
<path d="M2375 1765 l0 -105 30 0 30 0 1 103 1 103 -31 2 -31 2 0 -105z"/>
<path d="M2470 1865 c-1 0 -2 -46 -3 -103 l-2 -102 35 0 35 0 -3 95 c-3 91 -3
95 18 95 49 0 63 -127 19 -171 -19 -19 -19 -19 2 -19 11 0 34 13 50 29 22 23
29 39 29 69 0 70 -56 113 -142 109 -21 -1 -38 -2 -38 -2z"/>
<path d="M2669 1866 c-2 -3 -3 -50 -1 -105 l3 -101 32 0 32 0 -3 95 -3 95 27
0 c15 0 38 -10 51 -22 l23 -21 0 26 c0 16 -7 28 -17 31 -21 6 -138 7 -144 2z"/>
<path d="M3126 1853 c-19 -10 -26 -21 -26 -43 0 -24 7 -33 38 -49 52 -26 69
-48 55 -69 -24 -38 -73 -20 -73 27 l0 26 -20 -25 c-11 -14 -20 -30 -20 -37 0
-16 37 -26 88 -24 109 4 123 77 24 124 -33 16 -47 28 -47 42 0 29 45 34 52 6
6 -25 31 -28 40 -6 7 21 1 26 -45 35 -27 5 -48 2 -66 -7z"/>
<path d="M3410 1866 c-1 -1 -2 -47 -3 -104 l-2 -102 33 0 32 0 0 103 0 104
-30 0 c-16 0 -30 -1 -30 -1z"/>
<path d="M3505 1764 c0 -57 3 -104 8 -104 4 0 10 -1 14 -2 3 -2 5 30 4 71 -2
48 1 71 8 67 6 -4 29 -36 52 -71 60 -93 69 -88 69 41 0 80 -3 105 -12 101 -9
-2 -12 -22 -10 -65 2 -34 0 -62 -5 -62 -9 0 -73 102 -73 118 0 5 -12 9 -28 10
l-27 1 0 -105z"/>
<path d="M3686 1863 c-3 -4 -6 -15 -6 -26 0 -19 1 -19 18 -4 36 33 42 22 42
-82 l0 -99 31 1 32 2 -2 98 c-2 80 0 97 13 97 8 0 18 -4 21 -10 9 -15 25 -12
25 5 0 11 -12 15 -47 16 -27 1 -64 3 -84 4 -21 2 -40 1 -43 -2z"/>
<path d="M1357 1758 l1 -103 30 -3 29 -3 -4 85 c-3 51 0 93 7 105 10 20 8 21
-27 21 l-38 0 2 -102z"/>
<path d="M1463 1849 c24 -14 23 -75 -1 -88 -16 -9 -17 -15 -8 -55 10 -43 13
-46 43 -46 l33 0 -19 39 -20 38 24 23 c48 45 21 101 -48 100 -20 -1 -20 -2 -4
-11z"/>
<path d="M2070 1847 c-50 -25 -63 -90 -30 -144 23 -39 60 -50 143 -45 26 2 27
5 27 53 l0 50 -47 -3 c-39 -2 -49 -7 -52 -23 -3 -19 -3 -19 16 -2 24 21 33 13
33 -25 0 -41 -27 -48 -57 -14 -44 51 -23 156 31 156 15 0 26 -7 29 -20 3 -11
10 -20 16 -20 18 0 25 31 10 41 -21 13 -90 11 -119 -4z"/>
<path d="M2902 1763 c-27 -57 -45 -103 -39 -103 12 1 38 50 52 98 10 35 23 26
53 -37 20 -45 33 -61 52 -64 37 -8 43 1 21 32 -11 16 -35 61 -54 102 l-34 74
-51 -102z"/>
<path d="M3899 1831 c-34 -35 -39 -86 -12 -132 33 -56 120 -57 164 -1 29 38
22 107 -16 139 -39 34 -98 31 -136 -6z m102 -3 c16 -29 15 -108 0 -136 -30
-57 -87 5 -78 85 2 23 10 50 17 58 18 22 47 18 61 -7z"/>
<path d="M2747 1774 c-8 -8 1 -24 14 -24 5 0 9 7 9 15 0 15 -12 20 -23 9z"/>
<path d="M2817 1697 c-4 -10 -17 -22 -29 -27 -22 -8 -22 -9 5 -9 28 -1 43 17
35 41 -3 8 -7 6 -11 -5z"/>
<path d="M3019 1573 c0 -4 0 -35 0 -68 l1 -60 -25 30 c-14 17 -31 45 -37 63
-10 26 -17 32 -43 32 l-30 0 0 -100 c0 -82 3 -100 15 -100 12 0 14 14 12 77
l-4 78 19 -25 c10 -14 34 -49 53 -77 51 -77 60 -71 60 42 0 52 0 98 1 102 0 4
-4 9 -10 11 -6 2 -11 0 -12 -5z"/>
<path d="M2025 1480 c-26 -52 -52 -98 -57 -101 -5 -3 -3 -9 6 -12 11 -4 23 11
47 61 29 62 32 65 45 47 8 -10 14 -27 14 -37 0 -10 4 -18 10 -18 5 0 12 -11
16 -25 5 -19 13 -25 35 -25 16 0 29 2 29 4 0 2 -22 48 -49 102 l-48 99 -48
-95z"/>
<path d="M2232 1552 c-34 -26 -47 -84 -27 -126 9 -18 27 -38 41 -45 34 -15 99
-14 113 2 15 19 2 29 -16 12 -56 -57 -127 73 -77 143 17 25 64 31 64 8 0 -8 4
-17 9 -20 12 -8 71 14 71 25 0 5 9 9 21 9 19 0 20 -5 17 -95 l-3 -95 30 0 30
0 0 100 0 100 -57 0 c-31 0 -60 -5 -63 -10 -4 -7 -12 -7 -25 0 -30 16 -102 11
-128 -8z"/>
<path d="M2541 1551 c27 -22 32 -21 23 3 -3 9 -15 16 -26 16 -19 0 -19 -1 3
-19z"/>
<path d="M2585 1473 c0 -94 1 -98 23 -105 33 -10 56 0 41 18 -7 9 -9 42 -5 99
l6 85 -32 0 -33 0 0 -97z"/>
<path d="M2708 1552 c-48 -29 -58 -98 -23 -145 21 -28 83 -47 117 -35 34 12
68 65 68 106 0 37 -50 92 -83 92 -13 0 -17 -3 -11 -8 37 -24 48 -136 16 -165
-25 -23 -39 -21 -58 8 -21 32 -15 117 11 145 23 26 2 27 -37 2z"/>
</g>
</svg>
